<svg width="71" height="11" viewBox="0 0 71 11" fill="none" xmlns="http://www.w3.org/2000/svg">
<path d="M2.831 8.63953C1.199 8.63953 -0.000999987 7.23553 -0.000999987 5.27953C-0.000999987 3.32353 1.199 1.91953 2.831 1.91953C4.463 1.91953 5.663 3.32353 5.663 5.27953C5.663 7.23553 4.463 8.63953 2.831 8.63953ZM2.831 7.72753C3.899 7.72753 4.643 6.71953 4.643 5.27953C4.643 3.83953 3.899 2.83153 2.831 2.83153C1.763 2.83153 1.019 3.83953 1.019 5.27953C1.019 6.71953 1.763 7.72753 2.831 7.72753ZM7.61431 2.03953H8.56231V3.25153H8.62231C9.00631 2.39953 9.69031 1.91953 10.5783 1.91953C12.1023 1.91953 13.1943 3.33553 13.1943 5.27953C13.1943 7.22353 12.0903 8.63953 10.5663 8.63953C9.72631 8.63953 9.07831 8.20753 8.68231 7.45153H8.62231V10.9195H7.61431V2.03953ZM10.3983 2.83153C9.34231 2.83153 8.59831 3.83953 8.59831 5.27953C8.59831 6.71953 9.34231 7.72753 10.3983 7.72753C11.4543 7.72753 12.1743 6.73153 12.1743 5.27953C12.1743 3.82753 11.4543 2.83153 10.3983 2.83153ZM15.6736 5.47153C15.7456 6.85153 16.4776 7.75153 17.5816 7.75153C18.2536 7.75153 18.7936 7.40353 18.9856 6.86353H19.9456C19.7056 7.93153 18.7456 8.63953 17.5576 8.63953C15.8776 8.63953 14.6776 7.22353 14.6776 5.24353C14.6776 3.29953 15.8176 1.91953 17.4256 1.91953C18.9856 1.91953 20.0656 3.21553 20.0656 5.08753V5.47153H15.6736ZM17.4256 2.79553C16.5256 2.79553 15.8776 3.52753 15.7096 4.67953H19.0696C19.0216 3.53953 18.3376 2.79553 17.4256 2.79553ZM22.2449 8.51953V2.03953H23.1929V3.02353H23.2409C23.5889 2.32753 24.2249 1.91953 25.0409 1.91953C26.2409 1.91953 27.0329 2.80753 27.0329 4.13953V8.51953H26.0249V4.22353C26.0249 3.33553 25.5569 2.77153 24.8129 2.77153C23.9009 2.77153 23.2529 3.59953 23.2529 4.77553V8.51953H22.2449ZM29.4643 6.86353H30.4483C30.5323 7.40353 31.1803 7.81153 31.9723 7.81153C32.7883 7.81153 33.3403 7.36753 33.3403 6.70753C33.3403 6.17953 32.9923 5.91553 32.1043 5.77153L31.8043 5.73553C30.3643 5.50753 29.7043 4.94353 29.7043 3.93553C29.7043 2.74753 30.6163 1.91953 31.9363 1.91953C33.1963 1.91953 34.2043 2.67553 34.2643 3.69553H33.3163C33.2323 3.16753 32.6683 2.78353 31.9483 2.78353C31.2043 2.78353 30.6883 3.20353 30.6883 3.82753C30.6883 4.35553 31.0483 4.63153 31.8763 4.76353L32.1643 4.81153C33.6523 5.02753 34.3363 5.60353 34.3363 6.62353C34.3363 7.83553 33.3523 8.68753 31.9243 8.68753C30.5683 8.68753 29.5123 7.90753 29.4643 6.86353ZM39.0356 6.34753C39.0356 7.31953 39.4556 7.78753 40.3196 7.78753C40.6796 7.78753 41.0396 7.70353 41.3996 7.52353V8.36353C41.0636 8.54353 40.6316 8.63953 40.1516 8.63953C38.7596 8.63953 38.0276 7.84753 38.0276 6.34753V2.93953H36.2036V2.03953H38.0276V0.167531L39.0356 -0.000469208V2.03953H41.2796V2.93953H39.0356V6.34753ZM47.4909 3.89953C47.4909 3.20353 46.9869 2.77153 46.1589 2.77153C45.3909 2.77153 44.8149 3.14353 44.7429 3.69553H43.7589C43.8069 2.66353 44.8149 1.91953 46.1589 1.91953C47.5629 1.91953 48.4989 2.71153 48.4989 3.91153V6.20353C48.4989 7.21153 48.5709 7.95553 48.7389 8.51953H47.7789C47.6829 8.25553 47.6109 7.90753 47.5629 7.48753H47.5149C47.1429 8.21953 46.4589 8.63953 45.5829 8.63953C44.3709 8.63953 43.5189 7.83553 43.5189 6.67153C43.5189 5.48353 44.4069 4.83553 46.2309 4.66753L46.8309 4.60753C47.2869 4.55953 47.4909 4.34353 47.4909 3.89953ZM47.4909 5.09953C47.3469 5.20753 47.1549 5.26753 46.9149 5.30353L46.3389 5.36353C45.0789 5.51953 44.5269 5.90353 44.5269 6.64753C44.5269 7.35553 45.0189 7.81153 45.7629 7.81153C46.7229 7.81153 47.4909 7.03153 47.4909 5.99953V5.09953ZM53.4262 6.34753C53.4262 7.31953 53.8462 7.78753 54.7102 7.78753C55.0702 7.78753 55.4302 7.70353 55.7902 7.52353V8.36353C55.4542 8.54353 55.0222 8.63953 54.5422 8.63953C53.1502 8.63953 52.4182 7.84753 52.4182 6.34753V2.93953H50.5942V2.03953H52.4182V0.167531L53.4262 -0.000469208V2.03953H55.6702V2.93953H53.4262V6.34753ZM62.7215 6.35953C62.7215 6.97153 62.7575 7.76353 62.8055 8.51953H61.8455C61.8095 8.19553 61.7735 7.88353 61.7615 7.57153H61.7135C61.3535 8.24353 60.7295 8.63953 59.9255 8.63953C58.7255 8.63953 57.9335 7.75153 57.9335 6.41953V2.03953H58.9415V6.33553C58.9415 7.22353 59.4095 7.78753 60.1535 7.78753C61.0655 7.78753 61.7135 6.95953 61.7135 5.78353V2.03953H62.7215V6.35953ZM65.4408 6.86353H66.4248C66.5088 7.40353 67.1568 7.81153 67.9488 7.81153C68.7648 7.81153 69.3168 7.36753 69.3168 6.70753C69.3168 6.17953 68.9688 5.91553 68.0808 5.77153L67.7808 5.73553C66.3408 5.50753 65.6808 4.94353 65.6808 3.93553C65.6808 2.74753 66.5928 1.91953 67.9128 1.91953C69.1728 1.91953 70.1808 2.67553 70.2408 3.69553H69.2928C69.2088 3.16753 68.6448 2.78353 67.9248 2.78353C67.1808 2.78353 66.6648 3.20353 66.6648 3.82753C66.6648 4.35553 67.0248 4.63153 67.8528 4.76353L68.1408 4.81153C69.6288 5.02753 70.3128 5.60353 70.3128 6.62353C70.3128 7.83553 69.3288 8.68753 67.9008 8.68753C66.5448 8.68753 65.4888 7.90753 65.4408 6.86353Z" fill="black"/>
</svg>
